<?xml version="1.0" encoding="utf-8"?>
<!-- Generator: Adobe Illustrator 21.0.2, SVG Export Plug-In . SVG Version: 6.00 Build 0)  -->
<svg version="1.1" id="Слой_1" xmlns="http://www.w3.org/2000/svg" xmlns:xlink="http://www.w3.org/1999/xlink" x="0px" y="0px"
	 viewBox="0 0 66 66" style="enable-background:new 0 0 66 66;" xml:space="preserve">
<style type="text/css">
	.st0{fill:#3E4E68;}
	.st1{fill:#FFFFFF;}
</style>
<polygon class="st0" points="52.1,66 0,66 0,0 66,0 66,52.2 "/>
<path class="st1" d="M44,49.7c0.7-2.1,2.8-9.6,2.8-12.4v-9.6c0-1.3-1-2.3-2.3-2.3c-1.3,0-2.3,1.1-2.3,2.3v4.1c0,0.2-0.2,0.4-0.4,0.4
	c-0.2,0-0.4-0.2-0.4-0.4v-6.4c0-1.3-1-2.3-2.3-2.3c-1.3,0-2.3,1.1-2.3,2.3V30c0,0.2-0.2,0.4-0.4,0.4c-0.2,0-0.4-0.2-0.4-0.4v-6.4
	c0-1.3-1-2.3-2.3-2.3c-1.3,0-2.3,1-2.3,2.3v4.6c0,0.2-0.2,0.4-0.4,0.4c-0.2,0-0.4-0.2-0.4-0.4V15.1c0-1.3-1-2.3-2.3-2.3
	c-1.3,0-2.3,1-2.3,2.3v20.3c0,0.2-0.1,0.3-0.3,0.4c-0.2,0.1-0.4,0-0.5-0.1l-5.4-6.2l-0.1-0.1c-0.4-0.4-1-0.6-1.6-0.6h0
	c-0.6,0-1.2,0.2-1.6,0.7c-0.5,0.5-1,1.6,0.1,3.4c1.6,2.8,3.3,5.4,4.8,7.7c1.1,1.7,2.2,3.4,3,4.8c0.5,0.9,1.6,3.2,2.2,4.4L44,49.7
	L44,49.7z"/>
</svg>
