<?xml version="1.0" encoding="utf-8"?>
<!-- Generator: Adobe Illustrator 21.0.2, SVG Export Plug-In . SVG Version: 6.00 Build 0)  -->
<svg version="1.1" id="Слой_1" xmlns="http://www.w3.org/2000/svg" xmlns:xlink="http://www.w3.org/1999/xlink" x="0px" y="0px"
	 viewBox="0 0 66 66" style="enable-background:new 0 0 66 66;" xml:space="preserve">
<style type="text/css">
	.st0{fill:#3E4E68;}
	.st1{fill:#FFFFFF;}
</style>
<polygon class="st0" points="52.1,66 0,66 0,0 66,0 66,52.2 "/>
<g>
	<path class="st1" d="M33,16.3l4.2,9.9L48,27.2c0.7,0.1,1,1,0.5,1.5l-8.2,7.1l2.4,10.5c0.2,0.7-0.6,1.3-1.3,0.9l-9.2-5.6L23,47.1
		c-0.6,0.4-1.4-0.2-1.3-0.9l2.4-10.5L16,28.6c-0.6-0.5-0.3-1.4,0.5-1.5l10.7-0.9l4.2-9.9C31.8,15.6,32.7,15.6,33,16.3L33,16.3z"/>
</g>
</svg>
