<?xml version="1.0" encoding="utf-8"?>
<!-- Generator: Adobe Illustrator 21.0.2, SVG Export Plug-In . SVG Version: 6.00 Build 0)  -->
<svg version="1.1" id="Слой_1" xmlns="http://www.w3.org/2000/svg" xmlns:xlink="http://www.w3.org/1999/xlink" x="0px" y="0px"
	 viewBox="0 0 66 66" style="enable-background:new 0 0 66 66;" xml:space="preserve">
<style type="text/css">
	.st0{fill:#3E4E68;}
	.st1{fill:#FFFFFF;}
</style>
<polygon class="st0" points="52.1,66 0,66 0,0 66,0 66,52.2 "/>
<g>
	<path class="st1" d="M45.7,27.4H45v-3.4c0-6.2-5-11.5-11.1-11.6c-0.2,0-0.5,0-0.7,0C27,12.6,22,17.8,22,24.1v3.4h-0.7
		c-1.1,0-2,1.1-2,2.6v16.9c0,1.4,0.9,2.6,2,2.6h24.4c1.1,0,2-1.2,2-2.6V30C47.7,28.6,46.8,27.4,45.7,27.4z M35.8,38.4v5.1
		c0,0.6-0.5,1.1-1.1,1.1h-2.4c-0.6,0-1.1-0.5-1.1-1.1v-5.1c-0.6-0.6-0.9-1.3-0.9-2.2c0-1.6,1.3-3,2.8-3.1c0.2,0,0.5,0,0.7,0
		c1.6,0.1,2.8,1.5,2.8,3.1C36.7,37.1,36.4,37.9,35.8,38.4z M40.2,27.4h-6.4h-0.7h-6.4v-3.4c0-3.7,3-6.8,6.7-6.8s6.7,3.1,6.7,6.8
		L40.2,27.4L40.2,27.4z"/>
</g>
</svg>
