<?xml version="1.0" encoding="utf-8"?>
<!-- Generator: Adobe Illustrator 21.0.2, SVG Export Plug-In . SVG Version: 6.00 Build 0)  -->
<svg version="1.1" id="Слой_1" xmlns="http://www.w3.org/2000/svg" xmlns:xlink="http://www.w3.org/1999/xlink" x="0px" y="0px"
	 viewBox="0 0 66 66" style="enable-background:new 0 0 66 66;" xml:space="preserve">
<style type="text/css">
	.st0{fill:#3E4E68;}
	.st1{fill:#FFFFFF;}
</style>
<polygon class="st0" points="52.1,66 0,66 0,0 66,0 66,52.2 "/>
<g>
	<path id="XMLID_49_" class="st1" d="M36.9,45.9v1c0,0.8-0.6,1.5-1.4,1.6l-0.2,0.9c-0.1,0.5-0.6,0.8-1.1,0.8h-2.5
		c-0.5,0-1-0.3-1.1-0.8l-0.2-0.9c-0.8-0.1-1.4-0.8-1.4-1.6v-1c0-0.5,0.4-1,1-1H36C36.5,44.9,36.9,45.3,36.9,45.9z M41.5,32.3
		c0,2.3-0.9,4.4-2.4,5.9c-1.1,1.2-1.8,2.6-2.1,4.2c-0.1,0.7-0.7,1.2-1.4,1.2h-5.3c-0.7,0-1.3-0.5-1.4-1.2c-0.2-1.6-1-3.1-2.1-4.2
		c-1.4-1.5-2.3-3.5-2.4-5.8c0-4.7,3.7-8.5,8.4-8.6C37.6,23.8,41.5,27.6,41.5,32.3z M34,27.2c0-0.5-0.4-1-1-1c-3.4,0-6.1,2.7-6.1,6.1
		c0,0.5,0.4,1,1,1c0.5,0,1-0.4,1-1c0-2.3,1.9-4.2,4.2-4.2C33.5,28.1,34,27.7,34,27.2z M33,21.1c0.5,0,1-0.4,1-1v-3.3
		c0-0.5-0.4-1-1-1c-0.5,0-1,0.4-1,1v3.3C32,20.6,32.5,21.1,33,21.1z M21.8,32.3c0-0.5-0.4-1-1-1h-3.3c-0.5,0-1,0.4-1,1
		c0,0.5,0.4,1,1,1h3.3C21.3,33.3,21.8,32.8,21.8,32.3z M48.5,31.4h-3.3c-0.5,0-1,0.4-1,1c0,0.5,0.4,1,1,1h3.3c0.5,0,1-0.4,1-1
		C49.5,31.8,49.1,31.4,48.5,31.4z M23.7,40.3l-2.4,2.4c-0.4,0.4-0.4,1,0,1.4c0.2,0.2,0.4,0.3,0.7,0.3s0.5-0.1,0.7-0.3l2.4-2.4
		c0.4-0.4,0.4-1,0-1.4C24.7,39.9,24.1,39.9,23.7,40.3z M41.6,24.6c0.2,0,0.5-0.1,0.7-0.3l2.4-2.4c0.4-0.4,0.4-1,0-1.4
		c-0.4-0.4-1-0.4-1.4,0L40.9,23c-0.4,0.4-0.4,1,0,1.4C41.1,24.5,41.4,24.6,41.6,24.6z M23.7,24.4c0.2,0.2,0.4,0.3,0.7,0.3
		s0.5-0.1,0.7-0.3c0.4-0.4,0.4-1,0-1.4l-2.4-2.4c-0.4-0.4-1-0.4-1.4,0s-0.4,1,0,1.4L23.7,24.4z M42.3,40.3c-0.4-0.4-1-0.4-1.4,0
		c-0.4,0.4-0.4,1,0,1.4l2.4,2.4c0.2,0.2,0.4,0.3,0.7,0.3s0.5-0.1,0.7-0.3c0.4-0.4,0.4-1,0-1.4L42.3,40.3z"/>
</g>
</svg>
