<?xml version="1.0" encoding="utf-8"?>
<!-- Generator: Adobe Illustrator 21.0.2, SVG Export Plug-In . SVG Version: 6.00 Build 0)  -->
<svg version="1.1" id="Слой_1" xmlns="http://www.w3.org/2000/svg" xmlns:xlink="http://www.w3.org/1999/xlink" x="0px" y="0px"
	 viewBox="0 0 66 66" style="enable-background:new 0 0 66 66;" xml:space="preserve">
<style type="text/css">
	.st0{fill:#3E4E68;}
	.st1{fill:#FFFFFF;}
</style>
<polygon class="st0" points="52.1,66 0,66 0,0 66,0 66,52.2 "/>
<g>
	<path class="st1" d="M41.4,14c2,0,3.6-1.6,3.6-3.6s-1.6-3.6-3.6-3.6c-2,0-3.6,1.6-3.6,3.6S39.4,14,41.4,14z"/>
	<path class="st1" d="M37.3,27.3v7.3c0,0.6,0.5,1.1,1.1,1.1h6.1c0.6,0,1.1-0.5,1.1-1.1v-7.3l1.8-2.8c0.1-0.2,0.2-0.4,0.2-0.6v-5.4
		c0-1.5-1-2.9-2.4-3.4c0,0-0.9-0.3-0.9-0.3c-0.3-0.1-0.6-0.1-0.9,0.1l-1.9,1.1L39.5,15c-0.3-0.2-0.6-0.2-0.9-0.1
		c0,0-0.9,0.3-0.9,0.3c-1.5,0.5-2.4,1.8-2.4,3.4V24c0,0.2,0.1,0.4,0.2,0.6L37.3,27.3z"/>
	<path class="st1" d="M47.4,37.8H34.2c-0.6,0-1.1,0.5-1.1,1.1v3.3h-7.7c-0.6,0-1.1,0.5-1.1,1.1v3.3h-7.7c-0.6,0-1.1,0.5-1.1,1.1v4.4
		c0,0.6,0.5,1.1,1.1,1.1h30.8c0.6,0,1.1-0.5,1.1-1.1V38.9C48.5,38.3,48,37.8,47.4,37.8z"/>
</g>
</svg>
