<?xml version="1.0" encoding="utf-8"?>
<!-- Generator: Adobe Illustrator 21.0.2, SVG Export Plug-In . SVG Version: 6.00 Build 0)  -->
<svg version="1.1" id="Слой_1" xmlns="http://www.w3.org/2000/svg" xmlns:xlink="http://www.w3.org/1999/xlink" x="0px" y="0px"
	 viewBox="0 0 66 66" style="enable-background:new 0 0 66 66;" xml:space="preserve">
<style type="text/css">
	.st0{fill:#3E4E68;}
	.st1{fill:#FFFFFF;}
</style>
<polygon class="st0" points="52.1,66 0,66 0,0 66,0 66,52.2 "/>
<path class="st1" d="M46.9,21.7l-9.7-8c-0.8-0.7-2.2-1.2-3.3-1.2H22.6c-1.4,0-2.5,1.1-2.5,2.4c0,0.3,0,32.3,0,32.5
	c0,1.2,0.9,2.1,2.1,2.1c0.8,0,23.7,0,23.7,0c1.3,0,2.4-1.1,2.4-2.5V24.9C48.3,23.8,47.7,22.4,46.9,21.7z M42.8,31.7l-9,10.3
	c-0.2,0.3-0.6,0.4-1,0.4c-0.3,0-0.6-0.1-0.9-0.3l-7-6.2c-0.3-0.2-0.4-0.6-0.4-0.9c0-0.4,0.1-0.7,0.3-1l1.9-2.1
	c0.2-0.3,0.6-0.4,1-0.4c0.3,0,0.6,0.1,0.9,0.3l3.9,3.5l6.3-7.1c0.2-0.3,0.6-0.4,1-0.4c0.3,0,0.6,0.1,0.9,0.3l2.1,1.9
	c0.3,0.2,0.4,0.6,0.4,0.9C43.2,31.1,43.1,31.4,42.8,31.7z M37.1,24.2c-1.6,0-1.7-1.4-1.7-1.7v-6.8l10.7,8.5H37.1z"/>
</svg>
