<?xml version="1.0" encoding="utf-8"?>
<!-- Generator: Adobe Illustrator 21.0.2, SVG Export Plug-In . SVG Version: 6.00 Build 0)  -->
<svg version="1.1" id="Слой_1" xmlns="http://www.w3.org/2000/svg" xmlns:xlink="http://www.w3.org/1999/xlink" x="0px" y="0px"
	 viewBox="0 0 66 66" style="enable-background:new 0 0 66 66;" xml:space="preserve">
<style type="text/css">
	.st0{fill:#3E4E68;}
	.st1{fill:#FFFFFF;}
</style>
<polygon class="st0" points="52.1,66 0,66 0,0 66,0 66,52.2 "/>
<g>
	<path class="st1" d="M29.9,19.6c-0.4,0.4-0.4,1.1,0,1.5c0.4,0.4,1.1,0.4,1.5,0c0.9-0.9,2.5-0.9,3.4,0c0.2,0.2,0.5,0.3,0.8,0.3
		c0.3,0,0.6-0.1,0.8-0.3c0.4-0.4,0.4-1.1,0-1.5C34.6,17.8,31.7,17.8,29.9,19.6L29.9,19.6z"/>
	<path class="st1" d="M28.7,18c1.2-1.2,2.8-1.8,4.4-1.8c1.7,0,3.3,0.7,4.4,1.8c0.2,0.2,0.5,0.3,0.8,0.3c0.3,0,0.6-0.1,0.8-0.3
		c0.4-0.4,0.4-1.1,0-1.5c-1.6-1.6-3.7-2.5-6-2.5c-2.3,0-4.4,0.9-6,2.5c-0.4,0.4-0.4,1.1,0,1.5C27.6,18.5,28.3,18.5,28.7,18z"/>
	<path class="st1" d="M24.3,44.9c0,3.4,2.7,6.1,6.1,6.1H36c3.4,0,6.1-2.7,6.1-6.1V32.2H24.3L24.3,44.9L24.3,44.9z M36.5,34.5
		c0.2-0.2,0.6-0.4,0.9-0.4c0.3,0,0.7,0.1,0.9,0.4c0.2,0.2,0.4,0.6,0.4,0.9c0,0.3-0.1,0.7-0.4,0.9c-0.2,0.2-0.6,0.4-0.9,0.4
		c-0.3,0-0.7-0.1-0.9-0.4c-0.2-0.2-0.4-0.6-0.4-0.9C36.1,35,36.2,34.7,36.5,34.5L36.5,34.5z M36.5,38.6c0.2-0.2,0.6-0.4,0.9-0.4
		c0.3,0,0.7,0.1,0.9,0.4c0.2,0.2,0.4,0.6,0.4,0.9c0,0.3-0.1,0.7-0.4,0.9c-0.2,0.2-0.6,0.4-0.9,0.4c-0.3,0-0.7-0.1-0.9-0.4
		c-0.2-0.2-0.4-0.6-0.4-0.9C36.1,39.2,36.2,38.9,36.5,38.6L36.5,38.6z M36.5,42.8c0.2-0.2,0.6-0.4,0.9-0.4c0.3,0,0.7,0.1,0.9,0.4
		c0.2,0.2,0.4,0.6,0.4,0.9c0,0.3-0.1,0.7-0.4,0.9C38,44.9,37.7,45,37.4,45c-0.3,0-0.7-0.1-0.9-0.4c-0.2-0.2-0.4-0.6-0.4-0.9
		C36.1,43.4,36.2,43.1,36.5,42.8L36.5,42.8z M32.3,34.5c0.2-0.2,0.6-0.4,0.9-0.4c0.3,0,0.7,0.1,0.9,0.4c0.2,0.2,0.4,0.6,0.4,0.9
		c0,0.3-0.1,0.7-0.4,0.9c-0.2,0.2-0.6,0.4-0.9,0.4s-0.7-0.1-0.9-0.4c-0.2-0.2-0.4-0.6-0.4-0.9C31.9,35,32.1,34.7,32.3,34.5
		L32.3,34.5z M32.3,38.6c0.2-0.2,0.6-0.4,0.9-0.4c0.3,0,0.7,0.1,0.9,0.4c0.2,0.2,0.4,0.6,0.4,0.9c0,0.3-0.1,0.7-0.4,0.9
		c-0.2,0.2-0.6,0.4-0.9,0.4s-0.7-0.1-0.9-0.4c-0.2-0.2-0.4-0.6-0.4-0.9C31.9,39.2,32.1,38.9,32.3,38.6z M32.3,42.8
		c0.2-0.2,0.6-0.4,0.9-0.4c0.3,0,0.7,0.1,0.9,0.4c0.2,0.2,0.4,0.6,0.4,0.9c0,0.3-0.1,0.7-0.4,0.9c-0.2,0.2-0.6,0.4-0.9,0.4
		s-0.7-0.1-0.9-0.4c-0.2-0.2-0.4-0.6-0.4-0.9C31.9,43.4,32.1,43.1,32.3,42.8L32.3,42.8z M28.1,34.5c0.2-0.2,0.6-0.4,0.9-0.4
		c0.3,0,0.7,0.1,0.9,0.4c0.2,0.2,0.4,0.6,0.4,0.9c0,0.3-0.1,0.7-0.4,0.9c-0.2,0.2-0.6,0.4-0.9,0.4c-0.3,0-0.7-0.1-0.9-0.4
		c-0.2-0.2-0.4-0.6-0.4-0.9C27.7,35,27.9,34.7,28.1,34.5L28.1,34.5z M28.1,38.6c0.2-0.2,0.6-0.4,0.9-0.4c0.3,0,0.7,0.1,0.9,0.4
		c0.2,0.2,0.4,0.6,0.4,0.9c0,0.3-0.1,0.7-0.4,0.9c-0.2,0.2-0.6,0.4-0.9,0.4c-0.3,0-0.7-0.1-0.9-0.4c-0.2-0.2-0.4-0.6-0.4-0.9
		C27.7,39.2,27.9,38.9,28.1,38.6z M28.1,42.8c0.2-0.2,0.6-0.4,0.9-0.4c0.3,0,0.7,0.1,0.9,0.4c0.2,0.2,0.4,0.6,0.4,0.9
		c0,0.3-0.1,0.7-0.4,0.9C29.7,44.9,29.3,45,29,45c-0.3,0-0.7-0.1-0.9-0.4c-0.2-0.2-0.4-0.6-0.4-0.9C27.7,43.4,27.9,43.1,28.1,42.8
		L28.1,42.8z"/>
	<path class="st1" d="M41,23.9H25.3c-0.6,0-1,0.5-1,1v5.3h17.7v-5.3C42.1,24.3,41.6,23.9,41,23.9L41,23.9z"/>
</g>
</svg>
