<?xml version="1.0" encoding="utf-8"?>
<!-- Generator: Adobe Illustrator 21.0.2, SVG Export Plug-In . SVG Version: 6.00 Build 0)  -->
<svg version="1.1" id="Слой_1" xmlns="http://www.w3.org/2000/svg" xmlns:xlink="http://www.w3.org/1999/xlink" x="0px" y="0px"
	 viewBox="0 0 66 66" style="enable-background:new 0 0 66 66;" xml:space="preserve">
<style type="text/css">
	.st0{fill:#3E4E68;}
	.st1{fill:#FFFFFF;}
</style>
<polygon class="st0" points="52.1,66 0,66 0,0 66,0 66,52.2 "/>
<g>
	<g>
		<path class="st1" d="M48.4,43h-2.5v-1.9c1.3-0.5,2.3-1.7,2.3-3.2c0-1.9-1.5-3.4-3.4-3.4c-1.9,0-3.4,1.5-3.4,3.4
			c0,1.5,1,2.7,2.3,3.2V43h-3.8V21.9c0-0.6-0.5-1.1-1.1-1.1H27.2c-0.6,0-1.1,0.5-1.1,1.1V43h-3.7v-1.9c1.3-0.5,2.3-1.7,2.3-3.2
			c0-1.9-1.5-3.4-3.4-3.4c-1.9,0-3.4,1.5-3.4,3.4c0,1.5,1,2.7,2.3,3.2V43h-2.6c-0.6,0-1.1,0.5-1.1,1.1c0,0.6,0.5,1.1,1.1,1.1h30.8
			c0.6,0,1.1-0.5,1.1-1.1C49.5,43.5,49,43,48.4,43z M34,27.2c0-0.6,0.5-1.1,1.1-1.1c0.6,0,1.1,0.5,1.1,1.1v1.4
			c0,0.6-0.5,1.1-1.1,1.1c-0.6,0-1.1-0.5-1.1-1.1V27.2z M34,33.5c0-0.6,0.5-1.1,1.1-1.1c0.6,0,1.1,0.5,1.1,1.1v1.4
			c0,0.6-0.5,1.1-1.1,1.1c-0.6,0-1.1-0.5-1.1-1.1V33.5z M29.9,27.2c0-0.6,0.5-1.1,1.1-1.1c0.6,0,1.1,0.5,1.1,1.1v1.4
			c0,0.6-0.5,1.1-1.1,1.1c-0.6,0-1.1-0.5-1.1-1.1V27.2z M29.9,33.5c0-0.6,0.5-1.1,1.1-1.1c0.6,0,1.1,0.5,1.1,1.1v1.4
			c0,0.6-0.5,1.1-1.1,1.1c-0.6,0-1.1-0.5-1.1-1.1V33.5z M36.3,43h-6.4v-3.1c0-0.6,0.5-1.1,1.1-1.1h4.2c0.6,0,1.1,0.5,1.1,1.1
			L36.3,43L36.3,43z"/>
	</g>
</g>
</svg>
