<?xml version="1.0" encoding="utf-8"?>
<!-- Generator: Adobe Illustrator 21.0.2, SVG Export Plug-In . SVG Version: 6.00 Build 0)  -->
<svg version="1.1" id="Слой_1" xmlns="http://www.w3.org/2000/svg" xmlns:xlink="http://www.w3.org/1999/xlink" x="0px" y="0px"
	 viewBox="0 0 203.2 54.5" style="enable-background:new 0 0 203.2 54.5;" xml:space="preserve">
<style type="text/css">
	.st0{fill:#5B5B5B;}
	.st1{fill-rule:evenodd;clip-rule:evenodd;fill:#FFE0A1;}
	.st2{fill-rule:evenodd;clip-rule:evenodd;fill:#F8931F;}
	.st3{fill-rule:evenodd;clip-rule:evenodd;fill:#FE0000;}
</style>
<g>
	<path class="st0" d="M190.2,15.8c0.4,2.5,2,4.3,5.2,4.3c2.2,0,4.8-1.9,4.9-4.3h-3.4c-0.1,0.9-0.9,1.3-1.6,1.3
		c-0.8,0-1.3-0.3-1.6-1.3H190.2z M190.1,39.3l9-11.3v11.3h4.1V20.9h-3.4l-8.9,11.3V20.9h-4.1v18.5H190.1z M169.5,39.3h14.3v-3.8
		h-10.3v-3.7h9.4v-3.7h-9.4v-3.4h10v-3.8h-14.1V39.3z M151.7,24.7h5.9v14.6h4.1V24.7h5.9v-3.8h-15.9V24.7z M136.2,39.3h14.3v-3.8
		h-10.3v-3.7h9.4v-3.7h-9.4v-3.4h10v-3.8h-14.1V39.3z M113.6,39.3h4.1V28.2l5,7.4h1.1l4.8-7.4v11.1h4.1V20.9h-3.7l-5.6,8.8l-5.9-8.8
		h-3.8V39.3z M96.1,30.1c0-3.4,2.5-5.6,5.3-5.6c2.7,0,5.2,2.2,5.2,5.6c0,3.4-2.3,5.6-5.2,5.6C98.6,35.7,96.1,33.5,96.1,30.1z
		 M91.9,30.1c0,5.5,4.2,9.5,9.5,9.5c5.3,0,9.5-4.1,9.5-9.5c0-5.5-4.2-9.5-9.5-9.5C96.1,20.5,91.9,24.8,91.9,30.1z M82.7,24.7
		c2.6,0,3.5,1.1,3.5,2.5c0,1.6-1.1,2.5-3.6,2.5H79v-5H82.7z M79,39.3v-5.8h3.6c5.8,0,7.8-3.2,7.8-6.3c0-3-1.6-6.4-7.8-6.4h-7.6v18.5
		H79z M67.3,39.3h4.1V20.9H55v18.5h4.1V24.7h8.2V39.3z"/>
	<path class="st1" d="M3.5,45.8c1.4,2,3.8,4.3,6.2,5.9c1.2,0.8,2.7,1.6,4.1,1.8c-0.1-0.1-0.2-0.3-0.3-0.4c-0.2-0.3-0.5-0.6-0.8-0.8
		c-1.5-1.6-2.6-3.4-3.3-5.7C9,44.9,9,43.4,9.3,41.6c0.5-2.7,2.1-5.7,3.7-8.4c0.7-1.1,1.3-2.2,1.9-3.1c0.3-0.5,0.8-1.3,1.1-1.8
		c2-3.6,3.5-7.7,3.6-12c0.2-5.1-1.3-10.2-4.9-13.9C14.2,1.9,12,0.1,11.4,0l0.9,2.6c0.9,3.2,1.1,6,0.1,9.1c-1.8,5.6-6.7,9.8-10,14.8
		c-1,1.6-1.7,3.4-2,5.1c-0.7,3.3-0.2,6.7,1,9.9C1.9,43,2.7,44.4,3.5,45.8"/>
	<path class="st2" d="M20.1,54.5c-0.2-0.7-0.9-1.5-0.9-3.4c0-5.9,7.5-11.9,10.3-18.5c1.8-4.2,2.4-9.8,0.6-14.7c-1-2.8-2.4-4.9-4.4-7
		c-0.3-0.4-0.7-0.7-1-1c-0.3-0.2-0.6-0.5-0.9-0.8C23.7,9.1,23.6,9,23.5,9c0.8,7.4-0.1,13.9-3.8,20c-2.7,4.4-8.6,10-8.8,15.6
		c-0.1,3.5,1.8,7,4.7,8.7C17.2,54.2,19.7,54.6,20.1,54.5"/>
	<path class="st3" d="M35.9,25.2c0,0.9-0.8,4.1-0.9,4.7C32.8,39,23,44.6,21,49.7c-0.7,1.8-0.4,2.8,0.3,4.4c1.3-0.1,3.1-0.8,4.5-1.4
		C35.5,48.4,41.8,34,35.9,25.2"/>
	<path class="st0" d="M201.2,46.6c-0.5,0-0.8-0.3-0.8-0.6c0-0.4,0.2-0.6,0.8-0.6h1v1.2H201.2z M202.2,49h1v-4.6h-1.9
		c-1.3,0-1.9,0.7-1.9,1.5c0,0.7,0.4,1.1,1,1.3l-1.3,1.7h1.2l1.2-1.5h0.8V49z M192.6,49l2.2-2.8V49h1v-4.6H195l-2.2,2.8v-2.8h-1V49
		H192.6z M187.1,49h1v-4.6h-1v1.8h-2v-1.8h-1V49h1v-1.8h2V49z M178.4,46l0.6,1.4h-1.2L178.4,46z M176.1,49h1l0.4-0.8h1.9l0.4,0.8
		h1.1l-2-4.6h-0.8L176.1,49z M171.8,49h1v-4.6h-4V49h1v-3.6h2V49z M160.4,49h1v-2.8l1.2,1.8h0.3l1.2-1.8V49h1v-4.6h-0.9l-1.4,2.2
		l-1.5-2.2h-0.9V49z M153.3,46.7c0-0.8,0.6-1.4,1.3-1.4c0.7,0,1.3,0.5,1.3,1.4c0,0.8-0.6,1.4-1.3,1.4
		C153.9,48.1,153.3,47.6,153.3,46.7z M152.2,46.7c0,1.4,1.1,2.4,2.4,2.4c1.3,0,2.4-1,2.4-2.4c0-1.4-1-2.4-2.4-2.4
		C153.3,44.4,152.2,45.4,152.2,46.7z M145.4,49h1v-1.8h0.4l1.5,1.8h1.3l-2-2.4l1.8-2.2h-1.3l-1.5,1.8h-0.3v-1.8h-1V49z M135.1,46.6
		c-0.5,0-0.8-0.3-0.8-0.6c0-0.4,0.2-0.6,0.8-0.6h1v1.2H135.1z M136.1,49h1v-4.6h-1.9c-1.3,0-1.9,0.7-1.9,1.5c0,0.7,0.4,1.1,1,1.3
		l-1.3,1.7h1.2l1.2-1.5h0.8V49z M127.7,46l0.6,1.4h-1.2L127.7,46z M125.4,49h1l0.4-0.8h1.9l0.4,0.8h1.1l-2-4.6h-0.8L125.4,49z
		 M116.6,49h4.9v0.8h0.9v-1.7H122v-3.6h-1v3.6h-1.2v-3.6h-1v3.6h-1.2v-3.6h-1V49z M109.6,46.7c0-0.8,0.5-1.4,1.3-1.4
		c0.7,0,1.2,0.5,1.2,1.4c0,0.8-0.5,1.4-1.2,1.4C110.2,48.1,109.6,47.6,109.6,46.7z M107.2,49h1v-1.9h0.5c0.2,1.2,1.1,1.9,2.3,1.9
		c1.3,0,2.3-1,2.3-2.3c0-1.4-0.9-2.3-2.3-2.3c-1.2,0-2.1,0.8-2.2,1.9h-0.5v-1.8h-1V49z M101.5,46.6c-0.5,0-0.8-0.3-0.8-0.6
		c0-0.4,0.2-0.6,0.8-0.6h1v1.2H101.5z M102.5,49h1v-4.6h-1.9c-1.3,0-1.9,0.7-1.9,1.5c0,0.7,0.4,1.1,1,1.3L99.3,49h1.2l1.2-1.5h0.8
		V49z M95.1,49h1v-4.6h-3.4l0,0.5c0,2.9-0.2,3.2-0.9,3.1V49c0.1,0,0.2,0,0.3,0c0.9,0,1.5-0.2,1.6-3.1l0-0.5h1.4V49z M86.8,45.4
		c0.6,0,0.7,0.2,0.7,0.5c0,0.3-0.2,0.5-0.6,0.5h-0.9v-0.9H86.8z M86.9,47.1c0.6,0,0.8,0.2,0.8,0.5c0,0.3-0.2,0.5-0.8,0.5h-0.9v-1
		H86.9z M84.9,49h2c1,0,1.8-0.4,1.8-1.4c0-0.6-0.3-0.9-0.7-1.1c0.3-0.2,0.5-0.5,0.5-1c0-0.7-0.4-1.2-1.6-1.2h-2V49z M79.3,46
		l0.6,1.4h-1.2L79.3,46z M76.9,49h1l0.4-0.8h1.9l0.4,0.8h1.1l-2-4.6h-0.8L76.9,49z M72.6,45.4c0.6,0,0.9,0.3,0.9,0.6
		c0,0.4-0.3,0.6-0.9,0.6h-0.9v-1.2H72.6z M71.7,49v-1.4h0.9c1.4,0,1.9-0.8,1.9-1.6c0-0.8-0.4-1.6-1.9-1.6h-1.9V49H71.7z M66,49h1
		v-4.6h-4V49h1v-3.6h2V49z M58.6,44.5l-1.1,2.3l-1.4-2.3h-1.3l2.1,3.4c-0.1,0.2-0.2,0.3-0.3,0.3c-0.1,0-0.2-0.1-0.3-0.2l-0.7,0.6
		c0.3,0.4,0.6,0.5,0.9,0.5c0.6,0,1-0.4,1.3-1.1l1.7-3.5H58.6z"/>
</g>
</svg>
